/* XPM */
static char *result[] = {
/* columns rows colors chars-per-pixel */
"32 32 224 2 ",
"   c #000000",
".  c #00020A",
"X  c #000616",
"o  c #041426",
"O  c #0F2336",
"+  c #0C233B",
"@  c #243D32",
"#  c #36463F",
"$  c #454A37",
"%  c #597E3A",
"&  c #001851",
"*  c #062847",
"=  c #172E46",
"-  c #192C42",
";  c #062856",
":  c #0A3456",
">  c #16355A",
",  c #253647",
"<  c #393640",
"1  c #263E59",
"2  c #000877",
"3  c #09306C",
"4  c #183B65",
"5  c #193A73",
"6  c #223B67",
"7  c #02405B",
"8  c #3E5A46",
"9  c #29455A",
"0  c #334F55",
"q  c #344758",
"w  c #144A6D",
"e  c #2A4563",
"r  c #23446A",
"t  c #2A4C69",
"y  c #2F4C6F",
"u  c #3A4C63",
"i  c #33556A",
"p  c #2A5178",
"a  c #3C5874",
"s  c #4A594A",
"d  c #525352",
"f  c #665755",
"g  c #526F52",
"h  c #596957",
"j  c #686856",
"k  c #647257",
"l  c #6F7251",
"z  c #4A5A66",
"x  c #515D6D",
"c  c #475D78",
"v  c #5B6765",
"b  c #4F7068",
"n  c #577368",
"m  c #496379",
"M  c #4D657B",
"N  c #566577",
"B  c #536B7E",
"V  c #656B63",
"C  c #637368",
"Z  c #78706C",
"A  c #646C7D",
"S  c #6A687B",
"D  c #787A77",
"F  c #877E59",
"G  c #867C67",
"H  c #897475",
"J  c #6B8A21",
"K  c #759051",
"L  c #6D8367",
"P  c #778960",
"I  c #78857E",
"U  c #8C911A",
"Y  c #A6A416",
"T  c #9B9F39",
"R  c #A29F2C",
"E  c #B8B92D",
"W  c #AAA83C",
"Q  c #B3AF36",
"!  c #A9BC36",
"~  c #CCBE35",
"^  c #B2C405",
"/  c #BDCC3C",
"(  c #C8C805",
")  c #D7D60E",
"_  c #CCC818",
"`  c #D0CB1B",
"'  c #E2D918",
"]  c #D3E20C",
"[  c #E7E906",
"{  c #FCEB00",
"}  c #EFFA03",
"|  c #F7F907",
" . c #FEFE01",
".. c #E8E81A",
"X. c #FCF618",
"o. c #D3CD2C",
"O. c #C1C737",
"+. c #E5E424",
"@. c #FEF326",
"#. c #F9F036",
"$. c #83924B",
"%. c #8B9D4C",
"&. c #92A14F",
"*. c #A8AA4A",
"=. c #B0B351",
"-. c #85876A",
";. c #8C9169",
":. c #838272",
">. c #8A8676",
",. c #978C7E",
"<. c #AB9476",
"1. c #8EA368",
"2. c #9DA175",
"3. c #B2B96F",
"4. c #A8AB76",
"5. c #C2BC70",
"6. c #CAC344",
"7. c #CACA4A",
"8. c #D6CB44",
"9. c #C7C453",
"0. c #D8D358",
"q. c #EBE85B",
"w. c #C8C769",
"e. c #D1CE6D",
"r. c #C0C478",
"t. c #D9D678",
"y. c #E8E962",
"u. c #001C8E",
"i. c #073C8B",
"p. c #022D9C",
"a. c #134684",
"s. c #2E548D",
"d. c #384A91",
"f. c #355696",
"g. c #2A46B2",
"h. c #49568A",
"j. c #496785",
"k. c #586C89",
"l. c #527181",
"z. c #53649F",
"x. c #547392",
"c. c #616D87",
"v. c #637384",
"b. c #6D7C84",
"n. c #66768A",
"m. c #67798C",
"M. c #6A798A",
"N. c #777C87",
"B. c #667895",
"V. c #757E9A",
"C. c #5C74A4",
"Z. c #6B75A7",
"A. c #717BAB",
"S. c #4B5AC7",
"D. c #5B79CB",
"F. c #837C85",
"G. c #8A7D8B",
"H. c #5C828A",
"J. c #798387",
"K. c #728289",
"L. c #6C8597",
"P. c #748A90",
"I. c #7C8897",
"U. c #6F87A4",
"Y. c #7988A5",
"T. c #7A88D0",
"R. c #858786",
"E. c #848C8E",
"W. c #888A8E",
"Q. c #899388",
"!. c #9D9787",
"~. c #859195",
"^. c #96979B",
"/. c #A29987",
"(. c #B19E8A",
"). c #ABA588",
"_. c #B1A393",
"`. c #B9AB99",
"'. c #838CA5",
"]. c #8A98A8",
"[. c #9899A3",
"{. c #959CAC",
"}. c #828ABC",
"|. c #8A9AB4",
" X c #989DB2",
".X c #9AA4A5",
"XX c #97A7B7",
"oX c #A4A9A8",
"OX c #B6A1A3",
"+X c #A4ABB5",
"@X c #AEB5B6",
"#X c #B2B8B9",
"$X c #D0BC9B",
"%X c #C9CA89",
"&X c #C6CB97",
"*X c #E9EC97",
"=X c #C2C3BA",
"-X c #8C96C7",
";X c #949FC7",
":X c #9AA1C2",
">X c #9DB5CA",
",X c #98A4D3",
"<X c #ACBAC4",
"1X c #B6BAC5",
"2X c #ADB3D6",
"3X c #8B92ED",
"4X c #9AAAFF",
"5X c #AEBEF0",
"6X c #BCC3CA",
"7X c #BBC4D3",
"8X c #B9CFE5",
"9X c #C5C7CC",
"0X c #C5CBD4",
"qX c #C6D0D5",
"wX c #DADFE9",
"eX c #C5D3FF",
"rX c #D3DBFF",
"tX c #DCE5E9",
"yX c #D4E0FF",
"uX c #E2E6E8",
"iX c #EDECFF",
"pX c #EBF3F7",
"aX c #F1F7F8",
"sX c #FFFFFF",
/* pixels */
"                                                                ",
"                                                                ",
"                        X q S M m x 9 .                         ",
"                    y >XoX[.!./.!.W.oXqX:Xq                     ",
"                = 8X#.Z.q.8.Z.[.G.F.G.G.2X5X7XO                 ",
"              j.oXF | 9.8.6.6.~ | / W ~ 6.` |.oXc               ",
"            B.I.$ ).5.@.6.9.q.6.E Q ' _ T W 7X1Xd |.            ",
"          k.@Xv !.`.G OX XF.H Z f f < d *.Z v V 0 qXl.          ",
"        - 9X* e V $X(.>./.>.<.G l D W.J.J.[.Q.s # ].N.=         ",
"        >X> c & h N.<.(.`.<.(.G J.!.C Q.R.s k l * @X+XB         ",
"      9 @X4 a t I 9 &Xj (.,.,.^.:.G ~.H.b 7 3 w s <XwXoX,       ",
"      U.9X4 ; c i _.0 Z /./.^.,.-.i 4 > * R.e p b 6XtX7XL.      ",
"      aX,X}.{.k.2 h.7 V.k OX@X'.S B B.d.Z.M.3 n.i..X,X.X].      ",
"    , rX+.+.4.w.X.} A.| k.-.W.o.( 8.&.)  .d.| Y.| 3X| h.R.+     ",
"    N yX .2.S. .D.P $. .s.f -.{ r D. .u.g e.} Y.^ 9...x.+X*     ",
"    B.9X4X/ =. .g.2.%. .p.I -.{ 5 C. .g.K U | ~.3.] ..d.W.u     ",
"    A eX[ { D ! ( | p.} [ >.A...#.7.O.'  .4 | N 0.I.| d.u 1     ",
"    , E.5Xz.L.4 C.f.p a.f.x.L.B.A.].|.-Xe >.x.c.x.].Y.J.c -     ",
"    O I.uXV.1Xn.B.{.w w a.U.I.@X+X{.z @ s oXpX#XQ..XP.9 ~.o     ",
"      B.6XsX+Xv.M *.g L =.*.-XXXt K k k L @ # j +X7Xc N K.      ",
"      m P.sXtX{.n X.&.O./ q.0.E T J R | l _ J Y tXm.b.#Xq       ",
"        L.6XaXuXK.8 g 1.%XP C U 5 3 l $.h *.! & K.Q.K.XX        ",
"        e M.N l.uXiX0XXXK.I.M.v.e m.M e ~.:Xz 1Xa : =X9         ",
"          x.k.+Xq y.8 9Xf.;X@XoXT.n I.y rX%XT.6 , 9XL.          ",
"            s.v.Q._ 0.9.#.0.3.@.0.%XX.w...3.[ =.1XXX            ",
"              L.D E % 2.=.&X*Xe.&Xe.4.t.*.2.;.r.>X              ",
"                y ].i h.4 j.j.x.L.4 e > 1XV.I.r                 ",
"                  X l.p j.a j.k.p v.M K.'.N o                   ",
"                      . , r l.j.s.w : +                         ",
"                                                                ",
"                                                                ",
"                                                                "
};
