/* XPM */
static char *result[] = {
/* columns rows colors chars-per-pixel */
"64 64 256 2 ",
"   c #000000",
".  c #00010C",
"X  c #03080D",
"o  c #000414",
"O  c #00071A",
"+  c #23301A",
"@  c #000723",
"#  c #000D22",
"$  c #00132B",
"%  c #011428",
"&  c #021B36",
"*  c #05233C",
"=  c #102F36",
"-  c #21421C",
";  c #394935",
":  c #484A3B",
">  c #575739",
",  c #4A7336",
"<  c #70783A",
"1  c #001747",
"2  c #071255",
"3  c #0B2F47",
"4  c #062848",
"5  c #173749",
"6  c #032A57",
"7  c #063558",
"8  c #173958",
"9  c #273B55",
"0  c #011769",
"q  c #000F70",
"w  c #043867",
"e  c #143B65",
"r  c #092E71",
"t  c #2A366D",
"y  c #0D4B52",
"u  c #174556",
"i  c #35524E",
"p  c #294859",
"a  c #38495A",
"s  c #386D53",
"d  c #1B4567",
"f  c #124A72",
"g  c #284A68",
"h  c #354C69",
"j  c #38556A",
"k  c #264972",
"l  c #2F4D76",
"z  c #2C5575",
"x  c #385776",
"c  c #076578",
"v  c #33646C",
"b  c #39627B",
"n  c #464C49",
"m  c #475849",
"M  c #4F5556",
"N  c #665654",
"B  c #556B4E",
"V  c #5B6756",
"C  c #686B4A",
"Z  c #686958",
"A  c #756B58",
"S  c #6B725A",
"D  c #7B785B",
"F  c #46596A",
"G  c #465A74",
"H  c #535570",
"J  c #645F72",
"K  c #4A6769",
"L  c #5A6666",
"P  c #48637A",
"I  c #566878",
"U  c #5B6B7B",
"Y  c #597771",
"T  c #5B737D",
"R  c #676C66",
"E  c #766E6C",
"W  c #6C7667",
"Q  c #797868",
"!  c #626C77",
"~  c #687679",
"^  c #777979",
"/  c #827F4A",
"(  c #8E7665",
")  c #847866",
"_  c #867D75",
"`  c #6B911A",
"'  c #738B39",
"]  c #72914B",
"[  c #428277",
"{  c #73876D",
"}  c #7B847A",
"|  c #96AE1B",
" . c #AEB71C",
".. c #909230",
"X. c #A79733",
"o. c #94B12E",
"O. c #A9B42F",
"+. c #C9BB11",
"@. c #CFBA34",
"#. c #B6D00C",
"$. c #B6C518",
"%. c #B8D518",
"&. c #9BC02D",
"*. c #B9C928",
"=. c #B4C631",
"-. c #CED415",
";. c #E7D315",
":. c #CDE605",
">. c #D8E704",
",. c #E7E908",
"<. c #F7EB04",
"1. c #EAF702",
"2. c #F6F602",
"3. c #FFFE00",
"4. c #FFFE0A",
"5. c #F6E718",
"6. c #FEF917",
"7. c #CCD12F",
"8. c #D5C737",
"9. c #EED732",
"0. c #FDEB28",
"q. c #FCF427",
"w. c #FAE637",
"e. c #EEF034",
"r. c #8F9252",
"t. c #A9994F",
"y. c #99AD4C",
"u. c #ACB152",
"i. c #84846D",
"p. c #948869",
"a. c #8C976F",
"s. c #898579",
"d. c #978A79",
"f. c #9A9879",
"g. c #A38A73",
"h. c #A7977B",
"j. c #9AAC70",
"k. c #AAAD6C",
"l. c #CBB94D",
"z. c #C3BA61",
"x. c #BACC52",
"c. c #B4C56C",
"v. c #D4C646",
"b. c #D6CF52",
"n. c #E9D54E",
"m. c #FAF147",
"M. c #CACC6C",
"N. c #1A2F8F",
"B. c #0A3890",
"V. c #164889",
"C. c #2F4C8F",
"Z. c #395985",
"A. c #38628B",
"S. c #344FA2",
"D. c #475C87",
"F. c #4C568D",
"G. c #4A6988",
"H. c #566C85",
"J. c #597489",
"K. c #4B6A94",
"L. c #596997",
"P. c #5B7994",
"I. c #687788",
"U. c #747C89",
"Y. c #667091",
"T. c #757C96",
"R. c #545CB1",
"E. c #5B67A6",
"W. c #5A6EB3",
"Q. c #6D73AE",
"!. c #6A7AA8",
"~. c #6D7FE3",
"^. c #8C798F",
"/. c #558488",
"(. c #6E8889",
"). c #7A8586",
"_. c #7B838C",
"`. c #6B8396",
"'. c #748393",
"]. c #7C8592",
"[. c #778A97",
"{. c #7D8C9B",
"}. c #568EBC",
"|. c #6F8AAE",
" X c #7A88A8",
".X c #7C92A4",
"XX c #7886B8",
"oX c #858989",
"OX c #958784",
"+X c #8A968C",
"@X c #9A9889",
"#X c #848C94",
"$X c #858A98",
"%X c #899597",
"&X c #8B939B",
"*X c #969899",
"=X c #A69885",
"-X c #B19C8E",
";X c #A59A94",
":X c #9BA493",
">X c #ADA38A",
",X c #B7A58B",
"<X c #A6A59B",
"1X c #B4A994",
"2X c #B3B493",
"3X c #8998A5",
"4X c #939BA4",
"5X c #959BA6",
"6X c #8E91B0",
"7X c #899AB6",
"8X c #AA95AE",
"9X c #9AA4A8",
"0X c #9AA7B5",
"qX c #95A9B1",
"wX c #A6A9A9",
"eX c #A9B3AB",
"rX c #B7B1A6",
"tX c #A7ABB4",
"yX c #A9B4B8",
"uX c #ABB4BC",
"iX c #B5B8B8",
"pX c #C8B792",
"aX c #C3B9B0",
"sX c #B8C688",
"dX c #B6C3B8",
"fX c #D0CC87",
"gX c #F2F38C",
"hX c #CCC9B0",
"jX c #E3E1B1",
"kX c #8E96CD",
"lX c #95AAC9",
"zX c #A9B5C5",
"xX c #ABB3CF",
"cX c #B7BBC5",
"vX c #B3BCC4",
"bX c #9DA5EB",
"nX c #B9C3C9",
"mX c #BAC7D3",
"MX c #B6C9D4",
"NX c #B8C1EB",
"BX c #C6C9C9",
"VX c #C5CBD4",
"CX c #D3CAD0",
"ZX c #CAD3D6",
"AX c #CCD4DB",
"SX c #D5D8D9",
"DX c #E3DECF",
"FX c #CCD7E6",
"GX c #D3DAE4",
"HX c #CDD5F4",
"JX c #D9E4E9",
"KX c #D9E5F8",
"LX c #EAECEB",
"PX c #E9F2F9",
"IX c #F5FAFB",
"UX c #FDFEFD",
/* pixels */
"                                                                                                                                ",
"                                                                                                                                ",
"                                                                                                                                ",
"                                                                                                                                ",
"                                      .               X . o # & * % O o .                                                       ",
"                                        X     . % g J.3XMXnXyX9X4X7X0XtX[.J.g $ .     .   .                                     ",
"                                .         # j zX4X@X>X*Xs.@XwX*X+XoX~ oX9XiXBX0X7Xx O                                           ",
"                                      $ |.0XnX%X@X*XoX#X@X@Xs.d.i.<X*XoX).#X&XnXwXzXzXH.%                                       ",
"                                  O J.KXpXs.~ #Xh.iXf.9.$Xs.=X@X;Xp.) i.*X*X_.*XvXVXCXuXzXG.o       X                           ",
"                          .     3 lXHX] 3.0.{.@X3.m.c.0.!.^.6X;XoX^.OX&X_ ^ T.vX6X3XI.NXvXaX7X4                                 ",
"                            o k BXuXR t.0.2.8X7.8.w.j.m.=.n.<.-X-.n.a.4.u.<.2.^.3.8Xx.+.5X3X;X*Xl o                             ",
"                          % G.yX_.n d.k.0.=.z.4.f.w.a.<.4.Q. .z.,.6.X.@.! X.;.l.O.l.:.,X9X9X{.*X^ Y.O                           ",
"                        % J.tX3X+ S 1Xr.6.*X3.n.j.w.j.9.2.hXj.4.9.#.3.( >.X.+.@.! 2.4.J iXZXwXtX^ = 7Xo                         ",
"                      # P.wX6X= > s.<Xk.w.T.<.pXy.n.2X8.<X0.^.,.t...5.N ..<.-.X.H -.8.! yX5X4XnXoXL vX7Xo                       ",
"                X   @ H.uX[._.V E oX>X1Xs.=XaXOXrX0XW E _ _ _ E E A N A N M n N U.3.p.E R } _.^ R i 0XVX`..   .                 ",
"                    h cXuXL U.i p.pX1X>X_ s.1X,X&X@XiXi.g.( ( ) ) A A N n ; M A ) < E _ R ~ n V i M $XcX*XZ.                    ",
"                  4 MXtXI 7 ).5 D @XaX-X-X) S } @X=XR =Xg.( ( D D A S Q oX).L W i.^ ^ *X).U.V i N i = GXU.U.5         .         ",
"                o zX*XU 4 g h 4 4 f.k.2XpX,X>X1Xf.-X_ =X=Xh.d._ ) C R *X^ oX*X+XoX_.*X5Xs.{ V L : y P GX#XH |.o                 ",
"                G.mXx 2 6 BX6 6 4 g.eXhXh.h.-X,X>XaX1X=X,X=Xd.) i.^ 9X+Xs.} n %X+X%XS m V B { Z h 4 U.AXcXU R z                 ",
"              % VXd I.6 7 3 6 6 1 pX& ~ pXp.d.=X-X1Xg.d.g.=X) ) U.+XQ Q M } 4XeX^ L i V V W S B i 7 '.BXmXwXU I.$               ",
"          X   P.! iXd h P x P 6 `.d.p j pX( i.Z h.,Xd.OXh.s.<X].cXE S ^ wX_.{ uXeXQ B y 6 w s K B z 9XtXGXvX4X~ x   .           ",
"            & Y.zX5Xj k h g u H.*X& 2X* jX_ S ) >Xd.;Xg.d.<XU.<XA D oXs.T Y /.7 = y y 6 k w w f W s xXvXAXZXmXtX{.O             ",
"            u 5XcXtXk g 7 0 2 T tXa jX3 u h.V oX<X-X=X@XwX+Xs.Q Q { s.y e 7 k 6 6 1 G._.h 6 b w /.Z [.JXAXZXVXyX%Xg             ",
"          o g LXcXtXI.e Z.u G '.6 u hXQ 7 T i.S D d.@X;X;Xs.;X*X+XQ s.3 U P x e 1 ].U U.I.w I.k c D (.JXAXSXmXzX$XJ..           ",
"          @ nXFXvXU.#XyX~ U.'.6 k w 2 2Xy y 1XZ B Q s.1X:X;X5X4X+Xp.OXv ].I.#X5 7XU oX].G w I.G y [ Y JXVXcXuXY.^ 7Xo           ",
"          8 VXGXKX7XXX!.7XuX$XI.r q 2 uXK C.D.[.Z +XrX5XcX9X*X! H.M (.j ].x C.E.T.U x ! G C.).G.0 }.j GX7X|.*XtXF yX*           ",
"          J.cXFXqXq.3.3.M.U.xXc.3.3.2.@.7Xz &.w.oXoX<Xp.d.h.U.9.3.3.;.T.L.y.3.3.4.b.F.r ..5.E.j.:.@.XX0Xu.q.kXL F wXg           ",
"        . .XBXHXe.2.<Xk.n.XXr.4.b.~ ` 4.n.Y.#.<.A.S R A g.^.-.3...> :.-X' 3.l.p O.3.b.E.$.4.Q.x.3.3.rXxXx.3.k I.F wXl .         ",
"        o zXcXKX<.2.Q.!. X!.1.q.W.5XW.:.4.B.#.6.r } W C ( ( 3.8.5 Q f W.1.5.S.k N.1.6.W.%.3.Q.u.4.#.4.Q.x.6.C.I ! 5Xj X         ",
"        O MXAXFXjX2.3.n.Q.'.2.l.xXT.K.o.2.S.%.5.V.`.V B ) u.<.X.i W {.KX3.l.x 4 w | 4.kX%.4.E.M.4.u 4.h.o.6. X4XcX&Xx #         ",
"        $ FXuXzX0XhX-.3.2.W.3.@.K.tXK.o.4.N.%.6.V.b { Z _ t.3.r.X J.dXe 4.l.K.P Z.o.3.t $.6.kXy.4.kX-.4.r.6.6 (.ZXU.H.#         ",
"        $ FXAXvXbXNXE.x.3.E.3.0.q |.W.:.4.B.-.6.V.v M eXOX{ 3.n.'.V 0XE.3.0.C.I.C.>.4.& %.6.|.r.4.W.{ 3.5.4.r wX^ 9 I.&         ",
"        @ AXmXHX<.k.+X,.3.S.=.3.t.u *.3.p.V.#.4.] o.sX~ ~ 7X,.3.M.>X .rX .3.l.U  .3.r.x %.6.N.x.3.!.6X*.2.4.W.1 h F x *         ",
"        O cXVXlXv.2.4.<.*XP C.o.3.3.4.r.f V.o.>.5.<.j.H.).&X.X;.3.4.4.*X|.n.3.3.3.u.= s | m.z k.5.lX5XI.6.8.G [.a I a %         ",
"        o P.yX~ lXlXF.XX$XI p w r K.S.d z z V.V.A.C.A.`.I.&X$XI 6X!.lX%X4XqX!.P j K } L Y P.#X.X X~ &X].kX$X%XH U.n g O         ",
"        . J._.].nXFX^ $X3X[.H H.5X*X(.I.k z A.z J.A.H.[.P.`.'.9X).#X} *X~ 0X9XBX- [.{ +X(.*Xh U.P 5X3X7XtXK 3XU I a G .         ",
"          H.'.&XyXFX0XU $X3XI.U j 5X4X$XJ.k b b z b `.`.{.I.MXuXtXuX+X$XW W m - ; } wXwXnXcX9XCXoXeX.X#X[.*Xh G h oXh           ",
"          3 I.{.MXIXmX~ IX5X4XU I.U. X%Xz k f f V.A.`.|.3XqX3X5X&X6X7X{.a F F a ; Z m BXUXdXnX~ (.%X4XuX[.H.I 5 oX(.3           ",
"          O P.U nXJXGXUXzXoX3XU ~ '.a.x `.j v s b.] *Xy.T.0XHXoXH.u '.Z I m F K i 9XB C V / Z +XW nXPX%XP U.j T Z `.o           ",
"        .   x 9X3XnXIXPXmXvX~ T.G.B 4.t.r 1.q.w ).&.E 3.R.jXf.L.Y T 6 2.B.3.t.] 8.3 m 2 < 5 ' V iXuXuX3X! G.L ).~ x   .         ",
"        .   * 0X_.0XUXPXJXGXU p $Xj.8.5.y =.w.B l.o.<X1.e.,X2.F.3.t e >.a ,.8.| M O.| u.:.2 2.m ).SXH.&XG I.(.9X%X*             ",
"            . .X0XL GXPXFXGXJXPXx ] b.5.,.5Xq.{ v.=.BX4.6.Q.y. .9.w y .. .D <.>.q ;. .@., $.;.h IXnXzXL %X%XeXtXI X             ",
"            . 8 .XF mXUXUXIXLXM  X] 8.s 4.B.6.' n.m.rX3.h 3.0 3.Z g g y 3.H *.0.0 3.,.w.r 3.C j ~ eXSX*XT :XoX*X5               ",
"              . |.I.G ZX&XIXIXUXwXY.e H Z.P Z.MX7X6Xz C.x XXe 3.r g g p C.F x 3 h Y.Q.a L.3.0 7 6 rXu ~ K 9XiXP o     .         ",
"                * 3X[.`.U.tX5XAXSXqXCXUX9XI.iX&XK J.].~ (.U.(.R g g g j $XI 5 h L zXoXtX9 Z % GXF F w F ].dX3X3                 ",
"                . x I.G U G 7 F UXyXZXVXJXGXzX%XT.yX&X3XY.).I.J.j I.tXU.5 H.~ F {.%XKXL #X{.IXT.3X6 3 (.+XiXx                   ",
"                  # Z.tXU.H.uXcXF 0XkXxX8 f.DXAX7XI.zXnXJXeXyX0XAXIXtX3XwXI J.5 JXFXgXUXBX~ G ~ 8 p #XtX<X/.o                   ",
"                    4 x H.x a &Xh , 3.3.oX` pXK.F.K.[.XXQ.u.v.XXG r q ` z.S.F XXNXxX{ E L.XXG.8 g U.SX*X3X&                     ",
"                      8 w I.g I $Xk.v.o.hX*.@X| <.q.kX1.4.k.fX3.7X3.6.sX2.3.0X2.2.k.*.=X3.2.0.K.oXcXoXvX5                       ",
"                        9 A._.3XI.] 5.O.l.=.jX3.bX*.gXb.NXc.3.pXsXn.~.M.fXu.pXy.9.n. .CX2.R.4.Y.AX%XZX4     .                   ",
"                          6 |.+X&Xr.,.=.n.*.DX4.u.3.FX3.7.M.gX4.nX4.7.b.z.O.fX4.=.n.7.OX3.R.3.L.uXnX5                           ",
"                .       .   & K.G ~ p.C r = a Z.u.F.{.wXhXJXoXeXSX[.f.iXoXiXrX*X:X} { 4Xp.H.j.tXyX3                             ",
"                              $ P.! '.! h x G $XP Y.U.tXI.mX[.J.(.tX'.I I 4 3 6 %XeX].! $Xa '.P @                               ",
"                          .     o 8 T.#X~ x z e w 6 d w k 7 Y.H.x Y.8 6 x G.3Xh iXzX#X].nXG 6 .                                 ",
"                          .         O j 3X! p g I H.e x A.&XT z z P [.P j ].J.T Y.L } (.G.%                                     ",
"                                      . @ j G.k h j z ].P 7 I.{.x z h U G j ~ U tX[.x @               .                         ",
"                                            o 3 x G.K.G G.J.P k b d d f k f e z * .                                             ",
"                                                  . @ 5 9 z P I.z x d 8 * % X                                                   ",
"                                              X                                 .                                               ",
"                                                                        .                                                       ",
"                                                                                                                                ",
"                                                                                                                                ",
"                                                                                                                                ",
"                                                                                                                                "
};
