/* XPM */
static char *result[] = {
/* columns rows colors chars-per-pixel */
"16 16 159 2 ",
"   c black",
".  c #000006",
"X  c #000007",
"o  c #00020E",
"O  c #00050C",
"+  c #05090F",
"@  c #030810",
"#  c #001121",
"$  c #0F1B27",
"%  c #14202D",
"&  c #08253D",
"*  c #1B2B39",
"=  c #657807",
"-  c #001D49",
";  c #152B52",
":  c #2A3A47",
">  c #273548",
",  c #293657",
"<  c #263D5C",
"1  c #2B3B5E",
"2  c #002C68",
"3  c #123664",
"4  c #1C3579",
"5  c #274B47",
"6  c #2C4249",
"7  c #28475C",
"8  c #314353",
"9  c #1F5267",
"0  c #324D68",
"q  c #2D596F",
"w  c #37556B",
"e  c #3B516E",
"r  c #284779",
"t  c #2E597F",
"y  c #49585B",
"u  c #617A46",
"i  c #747452",
"p  c #465163",
"a  c #565F7F",
"s  c #4A656D",
"d  c #5A6569",
"f  c #4D6879",
"g  c #596D7C",
"h  c #6E7566",
"j  c #6D7369",
"k  c #64757E",
"l  c #797E78",
"z  c #7D7D7B",
"x  c #827D19",
"c  c #917F40",
"v  c #708333",
"b  c #7A8666",
"n  c #788961",
"m  c #70866A",
"M  c #6B8871",
"N  c #9B9129",
"B  c #8F9C3E",
"V  c #909231",
"C  c #999537",
"Z  c #AAB124",
"A  c #A5A73C",
"S  c #ABB23E",
"D  c #BEBB3D",
"F  c #D9D917",
"G  c #F2D617",
"H  c #F9F600",
"J  c #C8C622",
"K  c #DBDA2C",
"L  c #DCDA37",
"P  c #F8F038",
"I  c #839543",
"U  c #84915E",
"Y  c #92A444",
"T  c #9AA84D",
"R  c #B1B547",
"E  c #B5B841",
"W  c #B3AA5D",
"Q  c #99826F",
"!  c #948A6E",
"~  c #879C69",
"^  c #808F7E",
"/  c #8C897B",
"(  c #90937A",
")  c #949E7B",
"_  c #A29D79",
"`  c #A6A26B",
"'  c #A1A47D",
"]  c #C3BC48",
"[  c #C7B865",
"{  c #C8D64F",
"}  c #C8CA52",
"|  c #D9D658",
" . c #E2DF41",
".. c #F4EF4F",
"X. c #F9F255",
"o. c #FAF55B",
"O. c #C3CB61",
"+. c #CAC569",
"@. c #CFD16D",
"#. c #E6E57A",
"$. c #0F318E",
"%. c #0D33B6",
"&. c #264E87",
"*. c #385885",
"=. c #3C5A86",
"-. c #3C6094",
";. c #5F6F86",
":. c #4D6794",
">. c #486798",
",. c #6F7A8E",
"<. c #6B7D92",
"1. c #687995",
"2. c #5968AE",
"3. c #4E63B2",
"4. c #4366C0",
"5. c #7E8288",
"6. c #778A8F",
"7. c #728198",
"8. c #7F889C",
"9. c #7586A6",
"0. c #7D97AF",
"q. c #7D8AB1",
"w. c #808986",
"e. c #858B8F",
"r. c #879790",
"t. c #819991",
"y. c #88939A",
"u. c #8D9499",
"i. c #929596",
"p. c #AF9B87",
"a. c #AC9C84",
"s. c #A4978B",
"d. c #99A09C",
"f. c #A0AA86",
"g. c #ACA990",
"h. c #828EAD",
"j. c #8791AD",
"k. c #929DA5",
"l. c #979EAB",
"z. c #99A0A2",
"x. c #9AA5B7",
"c. c #90A0B9",
"v. c #91A1BF",
"b. c #96A0BD",
"n. c #9AACBA",
"m. c #A8B5B7",
"M. c #ACB8BC",
"N. c #C6CC81",
"B. c #E1DF92",
"V. c #98A5C4",
"C. c #9DAAC9",
"Z. c #99A1D7",
"A. c #AAB9DC",
"S. c #BECAD5",
"D. c #D4D9C3",
"F. c #C4CBE0",
"G. c #E3E7F7",
"H. c #F5F8FF",
"J. c #F5FAFF",
/* pixels */
"                                ",
"          1 a u.7.,.>           ",
"      o c. .P _ ] ` B.v..       ",
"    + n.! [ ' W c x C l.k.@     ",
"    0.- / a.s.Q l e.5.i f <.    ",
"  * 9.3 g h p.i.j t 7 2 r.J.%   ",
"  j.@.d.N M z g.A U ( b t.f.p   ",
"  A.O.K 4.H $.G %.B I { F T 1.  ",
"  q.} s S q ~ ^ +.N.u n y.) <   ",
"  8 G.8.w.9 m Z.6.6 d z.M.e y   ",
"  O S.H.v Y | Z 5 J V = x.m.X   ",
"    0 ;.D.b.3.h.:.4 F.2.w k     ",
"      *.E R ..o.#.X.D L V.      ",
"        , -.&.>.=.r C.;         ",
"            $ : & #             ",
"                                "
};
